<?xml version="1.0" encoding="utf-8"?>
<!-- Generator: Adobe Illustrator 27.5.0, SVG Export Plug-In . SVG Version: 6.00 Build 0)  -->
<svg version="1.1" id="图层_1" xmlns="http://www.w3.org/2000/svg" xmlns:xlink="http://www.w3.org/1999/xlink" x="0px" y="0px"
	 viewBox="0 0 254.69 200" style="enable-background:new 0 0 254.69 200;" xml:space="preserve">
<style type="text/css">
	.st0{fill:#231815;}
</style>
<path class="st0" d="M254.78,186.1c1.16,3.47,0,6.94-2.31,9.25s-5.78,4.62-9.25,4.62H12.01c-3.47,0-6.94-1.16-9.25-4.62
	c-1.54-2.31-2.06-4.11-2.23-6.08c-0.16-1.79,0-3.6,0.35-5.36L23.57,70.5c1.16-5.78,5.78-9.25,11.56-9.25l22.22,0
	c7.78,0,13.89,7.17,12.1,14.75c-1.21,5.13-5.4,8.37-11.2,8.37H44.38l-7.67,38.33c-5.6,28.01,15.82,54.15,44.39,54.15h93.02
	c28.57,0,50-26.14,44.39-54.15l-7.67-38.33l-21.85,0c-7.55-12.87-2.35-23.12,7.97-23.12h23.12c5.78,0,10.4,3.47,11.56,9.25
	L254.78,186.1L254.78,186.1z M100.03,80.97C94.25,77.5,87.31,79.81,85,85.59c-3.47,4.62-2.31,11.56,3.47,15.03l26.59,15.03l0,43.81
	c12.87,7.55,23.12,2.35,23.12-7.97v-35.84l26.59-15.03c5.78-3.47,6.94-10.4,4.62-16.19c-3.47-5.78-10.41-6.94-16.19-4.62
	c-0.06,0.04-15.03,9.25-15.03,9.25V68.25l26.59-15.03c5.78-3.47,38-22.57,35.68-28.35c-3.47-5.78-41.46,5.23-47.24,7.54
	c-0.02,0.01-15.03,9.25-15.03,9.25l0-31.1c-12.87-7.55-23.12-2.35-23.12,7.97v23.12l-15.03-8.09c-5.78-3.47-39.27-10.48-41.58-4.7
	c-3.47,4.62,24.24,20.88,30.02,24.35l26.59,15.03v20.81L100.03,80.97z"/>
</svg>
