<?xml version="1.0" encoding="utf-8"?>
<!-- Generator: Adobe Illustrator 27.5.0, SVG Export Plug-In . SVG Version: 6.00 Build 0)  -->
<svg version="1.1" id="图层_1" xmlns="http://www.w3.org/2000/svg" xmlns:xlink="http://www.w3.org/1999/xlink" x="0px" y="0px"
	 viewBox="0 0 595.28 841.89" style="enable-background:new 0 0 595.28 841.89;" xml:space="preserve">
<style type="text/css">
	.st0{fill:#F4F4F5;}
</style>
<path class="st0" d="M314.48,412.79l-0.81-0.8c-0.4,0.41-0.82,0.73-1.25,1l-7.41-7.41c0.27-0.43,0.59-0.85,1-1.25l-0.8-0.81
	c-2.88,2.83-2.43,6.34-1.87,9.77c-3.49-0.54-7.3-0.79-10.53,2.44c-3.23,3.23-2.98,7.02-2.44,10.52c-3.44-0.57-6.98-1.05-9.86,1.79
	l0.8,0.81c0.41-0.41,0.84-0.73,1.27-0.99l7.56,7.56c-0.26,0.44-0.58,0.86-0.99,1.27l0.81,0.8c2.85-2.88,2.36-6.42,1.79-9.87
	c3.49,0.54,7.29,0.79,10.51-2.44c3.23-3.23,2.98-7.03,2.44-10.52C308.14,415.21,311.65,415.67,314.48,412.79z M311.34,413.52
	c-0.65,0.24-1.32,0.36-2.03,0.41l-5.24-5.24c0.04-0.7,0.17-1.38,0.41-2.03L311.34,413.52z M307.69,413.91
	c-1.01-0.08-2.06-0.25-3.17-0.43c-0.18-1.1-0.36-2.16-0.43-3.17L307.69,413.91z M303.54,414.46c0.35,2.19,0.61,4.4,0,6.48
	l-6.48-6.48C299.14,413.86,301.35,414.11,303.54,414.46z M293.18,417.01l7.81,7.81c-0.69,0.6-1.41,1.04-2.14,1.35l-7.02-7.02
	C292.14,418.42,292.57,417.71,293.18,417.01z M283.68,427.34c0.68-0.24,1.39-0.36,2.13-0.39l5.25,5.25
	c-0.03,0.74-0.15,1.45-0.39,2.13L283.68,427.34z M290.58,427.46c0.19,1.14,0.37,2.24,0.45,3.28l-3.77-3.77
	c1.04,0.08,2.14,0.26,3.28,0.45c0.01,0,0.02,0,0.03,0C290.58,427.44,290.58,427.45,290.58,427.46z M291.56,426.44
	c-0.34-2.11-0.59-4.15-0.13-6.07l6.21,6.21C295.71,427.03,293.67,426.78,291.56,426.44z M301.8,424.02l-7.82-7.82
	c0.62-0.56,1.26-0.98,1.92-1.3l7.2,7.2C302.78,422.76,302.35,423.41,301.8,424.02z"/>
</svg>
